<svg width="25" height="24" viewBox="0 0 25 24" fill="none" xmlns="http://www.w3.org/2000/svg">
<g id="Icon / Facebook">
<path id="Vector" d="M17.1641 6H14.1641C13.6118 6 13.1641 6.44772 13.1641 7V10H17.1641C17.2778 9.99748 17.3857 10.0504 17.4533 10.1419C17.5209 10.2334 17.5399 10.352 17.5041 10.46L16.7641 12.66C16.6959 12.8619 16.5072 12.9984 16.2941 13H13.1641V20.5C13.1641 20.7761 12.9402 21 12.6641 21H10.1641C9.88792 21 9.66406 20.7761 9.66406 20.5V13H8.16406C7.88792 13 7.66406 12.7761 7.66406 12.5V10.5C7.66406 10.2239 7.88792 10 8.16406 10H9.66406V7C9.66406 4.79086 11.455 3 13.6641 3H17.1641C17.4402 3 17.6641 3.22386 17.6641 3.5V5.5C17.6641 5.77614 17.4402 6 17.1641 6Z" fill="black"/>
</g>
</svg>
