<svg width="25" height="24" viewBox="0 0 25 24" fill="none" xmlns="http://www.w3.org/2000/svg">
<g id="Icon / Instagram">
<path id="Vector" fill-rule="evenodd" clip-rule="evenodd" d="M16.6641 3H8.66406C5.90264 3 3.66406 5.23858 3.66406 8V16C3.66406 18.7614 5.90264 21 8.66406 21H16.6641C19.4255 21 21.6641 18.7614 21.6641 16V8C21.6641 5.23858 19.4255 3 16.6641 3ZM19.9141 16C19.9086 17.7926 18.4567 19.2445 16.6641 19.25H8.66406C6.87141 19.2445 5.41955 17.7926 5.41406 16V8C5.41955 6.20735 6.87141 4.75549 8.66406 4.75H16.6641C18.4567 4.75549 19.9086 6.20735 19.9141 8V16ZM17.4141 8.25C17.9664 8.25 18.4141 7.80228 18.4141 7.25C18.4141 6.69772 17.9664 6.25 17.4141 6.25C16.8618 6.25 16.4141 6.69772 16.4141 7.25C16.4141 7.80228 16.8618 8.25 17.4141 8.25ZM12.6641 7.5C10.1788 7.5 8.16406 9.51472 8.16406 12C8.16406 14.4853 10.1788 16.5 12.6641 16.5C15.1494 16.5 17.1641 14.4853 17.1641 12C17.1668 10.8057 16.6935 9.65957 15.849 8.81508C15.0045 7.97059 13.8584 7.49734 12.6641 7.5ZM9.91406 12C9.91406 13.5188 11.1453 14.75 12.6641 14.75C14.1829 14.75 15.4141 13.5188 15.4141 12C15.4141 10.4812 14.1829 9.25 12.6641 9.25C11.1453 9.25 9.91406 10.4812 9.91406 12Z" fill="black"/>
</g>
</svg>
