<svg width="25" height="24" viewBox="0 0 25 24" fill="none" xmlns="http://www.w3.org/2000/svg">
<g id="Icon / LinkedIn">
<path id="Vector" fill-rule="evenodd" clip-rule="evenodd" d="M5.66406 3H19.6641C20.7687 3 21.6641 3.89543 21.6641 5V19C21.6641 20.1046 20.7687 21 19.6641 21H5.66406C4.55949 21 3.66406 20.1046 3.66406 19V5C3.66406 3.89543 4.55949 3 5.66406 3ZM8.66406 18C8.9402 18 9.16406 17.7761 9.16406 17.5V10.5C9.16406 10.2239 8.9402 10 8.66406 10H7.16406C6.88792 10 6.66406 10.2239 6.66406 10.5V17.5C6.66406 17.7761 6.88792 18 7.16406 18H8.66406ZM7.91406 9C7.08563 9 6.41406 8.32843 6.41406 7.5C6.41406 6.67157 7.08563 6 7.91406 6C8.74249 6 9.41406 6.67157 9.41406 7.5C9.41406 8.32843 8.74249 9 7.91406 9ZM18.1641 18C18.4402 18 18.6641 17.7761 18.6641 17.5V12.9C18.6966 11.3108 17.5217 9.95452 15.9441 9.76C14.8411 9.65925 13.7724 10.1744 13.1641 11.1V10.5C13.1641 10.2239 12.9402 10 12.6641 10H11.1641C10.888 10 10.6641 10.2239 10.6641 10.5V17.5C10.6641 17.7761 10.888 18 11.1641 18H12.6641C12.9402 18 13.1641 17.7761 13.1641 17.5V13.75C13.1641 12.9216 13.8357 12.25 14.6641 12.25C15.4925 12.25 16.1641 12.9216 16.1641 13.75V17.5C16.1641 17.7761 16.388 18 16.6641 18H18.1641Z" fill="black"/>
</g>
</svg>
