<svg width="133" height="19" viewBox="0 0 133 19" fill="none" xmlns="http://www.w3.org/2000/svg">
<path d="M3.632 18V12.432H11.912L18.632 18H22.376L16.64 13.32L15.176 12.312L17 12.288C20.792 12.144 22.712 10.44 22.712 6.984C22.712 3.168 20.432 1.632 16.424 1.632H0.704V18H3.632ZM3.632 4.152H16.232C18.704 4.152 19.712 4.992 19.712 7.176C19.712 9.312 18.704 10.176 16.232 10.176H3.632V4.152ZM43.2476 6.576C40.7276 6.168 37.3196 5.736 33.6236 5.736C28.2236 5.736 24.5756 7.296 24.5756 12.048C24.5756 16.392 27.1676 18.24 31.7036 18.24C34.9196 18.24 38.0636 17.184 40.6076 15.984L40.8476 18H43.2476V6.576ZM27.3116 11.976C27.3116 9.048 29.5676 7.992 33.3356 7.992C35.6876 7.992 38.3996 8.208 40.5116 8.496V14.112C37.7516 15.144 34.9676 15.936 32.2076 15.936C28.7996 15.936 27.3116 14.808 27.3116 11.976ZM62.0272 -1.43051e-06V6.384C59.9872 6.024 57.5392 5.736 54.9472 5.736C49.6672 5.736 46.0912 7.344 46.0912 12.12C46.0912 16.44 48.6592 18.24 53.4112 18.24C56.5552 18.24 59.6272 17.16 62.1232 16.008L62.3632 18H64.7632V-1.43051e-06H62.0272ZM48.8272 12.072C48.8272 9.072 51.0352 7.992 54.7552 7.992C57.1552 7.992 59.9152 8.256 62.0272 8.544V14.208C59.3152 15.192 56.5312 15.936 53.8192 15.936C50.3392 15.936 48.8272 14.808 48.8272 12.072ZM70.9166 1.008H68.1806V4.248H70.9166V1.008ZM68.1806 18H70.9166V5.976H68.1806V18ZM92.5132 6.576C89.9932 6.168 86.5852 5.736 82.8892 5.736C77.4892 5.736 73.8412 7.296 73.8412 12.048C73.8412 16.392 76.4332 18.24 80.9692 18.24C84.1852 18.24 87.3292 17.184 89.8732 15.984L90.1132 18H92.5132V6.576ZM76.5772 11.976C76.5772 9.048 78.8332 7.992 82.6012 7.992C84.9532 7.992 87.6652 8.208 89.7772 8.496V14.112C87.0172 15.144 84.2332 15.936 81.4732 15.936C78.0652 15.936 76.5772 14.808 76.5772 11.976ZM95.8368 18H98.5728V9.528C101.501 8.568 104.165 8.016 106.301 8.016C109.853 8.016 111.293 9.384 111.293 11.808V18H114.029V11.472C114.029 7.344 111.485 5.688 107.165 5.688C104.021 5.688 100.973 6.6 98.4528 7.656L98.2368 5.976H95.8368V18ZM118.796 12.048C118.796 16.608 120.932 18.288 126.02 18.288C128.42 18.288 130.724 17.88 132.428 17.448L131.9 15.24C130.268 15.6 128.42 15.936 126.236 15.936C122.588 15.936 121.556 14.88 121.556 11.832V8.232H131.684V5.976H121.556V2.904H119.324L118.844 5.976H115.844V8.232H118.796V12.048Z" fill="black"/>
</svg>
