<svg width="47" height="48" viewBox="0 0 47 48" fill="none" xmlns="http://www.w3.org/2000/svg">
<g id="Icon / Relume">
<path id="Vector" fill-rule="evenodd" clip-rule="evenodd" d="M40.46 14.24L40.18 13.74C39.8188 13.1354 39.3094 12.6329 38.7 12.28L25.28 4.54C24.6724 4.1875 23.9826 4.00124 23.28 4H22.7C21.9974 4.00124 21.3076 4.1875 20.7 4.54L7.28 12.3C6.67394 12.6505 6.17052 13.1539 5.82 13.76L5.54 14.26C5.1875 14.8677 5.00124 15.5575 5 16.26V31.76C5.00124 32.4626 5.1875 33.1524 5.54 33.76L5.82 34.26C6.17958 34.859 6.68098 35.3604 7.28 35.72L20.72 43.46C21.3246 43.8198 22.0164 44.0066 22.72 44H23.28C23.9826 43.9988 24.6724 43.8126 25.28 43.46L38.7 35.7C39.312 35.3574 39.8174 34.852 40.16 34.24L40.46 33.74C40.8082 33.1306 40.9942 32.442 41 31.74V16.24C40.9988 15.5375 40.8126 14.8477 40.46 14.24ZM22.7 8H23.28L35 14.76L23 21.68L11 14.76L22.7 8ZM25 39L36.7 32.24L37 31.74V18.22L25 25.16V39Z" fill="#78A8B0"/>
</g>
</svg>
