<svg width="25" height="24" viewBox="0 0 25 24" fill="none" xmlns="http://www.w3.org/2000/svg">
<g id="Icon / Twitter">
<path id="Vector" d="M21.6377 6.7174C21.1733 7.33692 20.6119 7.87733 19.9752 8.31776C19.9752 8.47959 19.9752 8.64142 19.9752 8.81225C19.9803 11.7511 18.8064 14.5691 16.7167 16.6345C14.6269 18.6999 11.7961 19.8399 8.85897 19.7989C7.16091 19.8046 5.48459 19.4169 3.96134 18.6661C3.8792 18.6302 3.82623 18.549 3.82654 18.4593V18.3604C3.82654 18.2313 3.93115 18.1267 4.06019 18.1267C5.72934 18.0716 7.33894 17.4929 8.66126 16.4724C7.15045 16.4419 5.79111 15.5469 5.16552 14.1707C5.13393 14.0956 5.14376 14.0093 5.19149 13.9432C5.23921 13.8771 5.31792 13.8407 5.39917 13.8471C5.85834 13.8932 6.3221 13.8505 6.76512 13.7212C5.09731 13.375 3.84413 11.9904 3.66478 10.2957C3.65841 10.2144 3.69484 10.1357 3.76092 10.0879C3.82699 10.0402 3.91316 10.0303 3.9883 10.062C4.43586 10.2595 4.91901 10.3635 5.40816 10.3676C3.94676 9.40846 3.31553 7.58405 3.87147 5.92622C3.92886 5.76513 4.06673 5.64612 4.23442 5.61294C4.4021 5.57975 4.57488 5.63728 4.68924 5.76439C6.66131 7.86325 9.37096 9.11396 12.2468 9.25279C12.1732 8.95885 12.137 8.65676 12.139 8.35372C12.1659 6.76472 13.1491 5.34921 14.6283 4.76987C16.1074 4.19054 17.7898 4.56203 18.8879 5.71044C19.6363 5.56785 20.3599 5.31645 21.0356 4.96421C21.0851 4.93331 21.1479 4.93331 21.1974 4.96421C21.2283 5.01373 21.2283 5.07652 21.1974 5.12604C20.8701 5.87552 20.3172 6.50412 19.6158 6.92419C20.23 6.85296 20.8334 6.70807 21.4131 6.49264C21.4619 6.45942 21.526 6.45942 21.5748 6.49264C21.6157 6.51134 21.6463 6.54711 21.6584 6.59042C21.6705 6.63373 21.6629 6.68018 21.6377 6.7174Z" fill="black"/>
</g>
</svg>
